<?xml version="1.0" encoding="UTF-8"?>
<!DOCTYPE svg PUBLIC "-//W3C//DTD SVG 1.1//EN" "http://www.w3.org/Graphics/SVG/1.1/DTD/svg11.dtd">
<svg xmlns="http://www.w3.org/2000/svg" version="1.1" width="417px" height="124px" style="shape-rendering:geometricPrecision; text-rendering:geometricPrecision; image-rendering:optimizeQuality; fill-rule:evenodd; clip-rule:evenodd" xmlns:xlink="http://www.w3.org/1999/xlink">
<g><path style="opacity:1" fill="#fefefe" d="M -0.5,-0.5 C 138.5,-0.5 277.5,-0.5 416.5,-0.5C 416.5,40.8333 416.5,82.1667 416.5,123.5C 277.5,123.5 138.5,123.5 -0.5,123.5C -0.5,82.1667 -0.5,40.8333 -0.5,-0.5 Z"/></g>
<g><path style="opacity:1" fill="#e55d3e" d="M 53.5,16.5 C 57.7016,16.1832 61.7016,16.5166 65.5,17.5C 67.2131,23.9256 69.2131,30.2589 71.5,36.5C 67.4346,37.2463 63.4346,38.2463 59.5,39.5C 58.3983,31.6204 56.3983,23.9538 53.5,16.5 Z"/></g>
<g><path style="opacity:1" fill="#ea6c32" d="M 53.5,16.5 C 56.3983,23.9538 58.3983,31.6204 59.5,39.5C 56.198,40.2937 52.8647,40.9604 49.5,41.5C 46.7206,34.7445 44.3873,27.7445 42.5,20.5C 41.5,20.5 40.5,20.5 39.5,20.5C 43.7829,18.1879 48.4495,16.8545 53.5,16.5 Z"/></g>
<g><path style="opacity:1" fill="#e14d4e" d="M 72.5,18.5 C 75.9875,19.4076 78.9875,21.0743 81.5,23.5C 84.9426,32.0005 87.7759,40.3339 90,48.5C 93.0867,56.6055 96.2534,64.6055 99.5,72.5C 98.7795,76.6886 97.1128,80.3552 94.5,83.5C 87.9359,61.5789 80.6026,39.9123 72.5,18.5 Z"/></g>
<g><path style="opacity:1" fill="#ed7826" d="M 39.5,20.5 C 40.5,20.5 41.5,20.5 42.5,20.5C 44.3873,27.7445 46.7206,34.7445 49.5,41.5C 45.7359,42.9915 41.7359,43.9915 37.5,44.5C 35.7279,39.9472 34.2279,35.2805 33,30.5C 32.5776,28.5743 31.4109,27.5743 29.5,27.5C 32.1251,24.1848 35.4584,21.8514 39.5,20.5 Z"/></g>
<g><path style="opacity:1" fill="#e04757" d="M 81.5,23.5 C 94.7315,31.447 101.398,43.2803 101.5,59C 101.634,63.7584 100.968,68.2584 99.5,72.5C 96.2534,64.6055 93.0867,56.6055 90,48.5C 87.7759,40.3339 84.9426,32.0005 81.5,23.5 Z"/></g>
<g><path style="opacity:1" fill="#e76443" d="M 289.5,28.5 C 301.529,27.7648 304.862,32.5981 299.5,43C 289.491,47.2943 284.658,44.1276 285,33.5C 286.025,31.313 287.525,29.6464 289.5,28.5 Z"/></g>
<g><path style="opacity:1" fill="#fbd4a8" d="M 137.5,31.5 C 129.826,31.3336 122.159,31.5003 114.5,32C 116.058,32.21 117.391,32.71 118.5,33.5C 116.833,33.5 115.167,33.5 113.5,33.5C 113.5,32.5 113.5,31.5 113.5,30.5C 121.684,30.1743 129.684,30.5076 137.5,31.5 Z"/></g>
<g><path style="opacity:1" fill="#f38d1b" d="M 137.5,31.5 C 141.466,45.689 145.299,60.0223 149,74.5C 152.486,60.5554 155.986,46.5554 159.5,32.5C 169.219,31.2037 175.552,31.2037 178.5,32.5C 178.5,51.8333 178.5,71.1667 178.5,90.5C 180.288,90.2148 181.955,90.5481 183.5,91.5C 174.5,92.8333 165.5,92.8333 156.5,91.5C 157.689,90.5713 159.022,90.238 160.5,90.5C 161.662,72.6714 161.829,54.6714 161,36.5C 160.392,38.1545 159.892,39.8211 159.5,41.5C 156.096,57.9156 152.263,74.2489 148,90.5C 144.506,92.377 140.673,93.0436 136.5,92.5C 132.039,74.4501 127.373,56.4501 122.5,38.5C 122.013,37.5266 121.513,36.5266 121,35.5C 120.171,54.0046 120.338,72.338 121.5,90.5C 122.978,90.238 124.311,90.5713 125.5,91.5C 121.5,92.8333 117.5,92.8333 113.5,91.5C 115.045,90.5481 116.712,90.2148 118.5,90.5C 118.5,71.5 118.5,52.5 118.5,33.5C 117.391,32.71 116.058,32.21 114.5,32C 122.159,31.5003 129.826,31.3336 137.5,31.5 Z"/></g>
<g><path style="opacity:1" fill="#e14f51" d="M 357.5,31.5 C 372.167,31.5 386.833,31.5 401.5,31.5C 393.255,51.1597 384.588,70.6597 375.5,90C 384.503,91.0837 391.67,87.917 397,80.5C 398.411,77.421 399.911,74.421 401.5,71.5C 402.426,78.4834 402.426,85.4834 401.5,92.5C 386.5,92.5 371.5,92.5 356.5,92.5C 364.745,72.8403 373.412,53.3403 382.5,34C 376.361,32.5493 370.861,33.7159 366,37.5C 363.153,41.87 360.32,46.2033 357.5,50.5C 357.25,44.2489 357.25,37.9156 357.5,31.5 Z"/></g>
<g><path style="opacity:1" fill="#f8bd7b" d="M 122.5,38.5 C 121.503,55.6586 121.17,72.992 121.5,90.5C 120.338,72.338 120.171,54.0046 121,35.5C 121.513,36.5266 122.013,37.5266 122.5,38.5 Z"/></g>
<g><path style="opacity:1" fill="#f28a15" d="M 29.5,27.5 C 31.4109,27.5743 32.5776,28.5743 33,30.5C 34.2279,35.2805 35.7279,39.9472 37.5,44.5C 36.7222,45.1556 36.0556,45.9889 35.5,47C 36.2953,56.4655 36.7953,65.9655 37,75.5C 38.3845,78.3859 40.5512,80.3859 43.5,81.5C 45.9222,87.3568 48.0888,93.3568 50,99.5C 50.9066,101.609 52.4066,102.942 54.5,103.5C 46.9499,103.378 40.2833,101.045 34.5,96.5C 34.8039,95.8501 35.1373,95.1835 35.5,94.5C 29.748,78.0734 23.9147,61.7401 18,45.5C 17.6174,46.056 17.1174,46.3893 16.5,46.5C 18.6275,38.5537 22.9608,32.2203 29.5,27.5 Z"/></g>
<g><path style="opacity:1" fill="#fce0c1" d="M 160.5,90.5 C 160.83,73.9915 160.496,57.6581 159.5,41.5C 159.892,39.8211 160.392,38.1545 161,36.5C 161.829,54.6714 161.662,72.6714 160.5,90.5 Z"/></g>
<g><path style="opacity:1" fill="#e35546" d="M 65.5,17.5 C 67.9029,17.448 70.2362,17.7814 72.5,18.5C 80.6026,39.9123 87.9359,61.5789 94.5,83.5C 92.2343,87.4356 89.2343,90.7689 85.5,93.5C 84.2944,86.8848 82.2944,80.5515 79.5,74.5C 79.8254,66.6484 79.492,58.9818 78.5,51.5C 76.3021,50.8347 73.9688,50.1681 71.5,49.5C 71.1207,47.7869 70.1207,46.7869 68.5,46.5C 71.2186,45.087 74.2186,44.4203 77.5,44.5C 77.5793,41.7294 77.0793,39.0627 76,36.5C 74.5098,35.2721 73.0098,35.2721 71.5,36.5C 69.2131,30.2589 67.2131,23.9256 65.5,17.5 Z"/></g>
<g><path style="opacity:1" fill="#fdece4" d="M 68.5,46.5 C 62.1667,47.8333 55.8333,49.1667 49.5,50.5C 48.2438,50.4614 47.2438,50.9614 46.5,52C 57.1615,52.4998 67.8281,52.6665 78.5,52.5C 78.5,59.8333 78.5,67.1667 78.5,74.5C 77.3581,79.6927 74.0248,82.026 68.5,81.5C 65.1667,81.5 61.8333,81.5 58.5,81.5C 53.5,81.5 48.5,81.5 43.5,81.5C 40.5512,80.3859 38.3845,78.3859 37,75.5C 36.7953,65.9655 36.2953,56.4655 35.5,47C 36.0556,45.9889 36.7222,45.1556 37.5,44.5C 41.7359,43.9915 45.7359,42.9915 49.5,41.5C 52.8647,40.9604 56.198,40.2937 59.5,39.5C 63.4346,38.2463 67.4346,37.2463 71.5,36.5C 73.0098,35.2721 74.5098,35.2721 76,36.5C 77.0793,39.0627 77.5793,41.7294 77.5,44.5C 74.2186,44.4203 71.2186,45.087 68.5,46.5 Z"/></g>
<g><path style="opacity:1" fill="#eb743f" d="M 54.5,42.5 C 57.0842,42.5688 59.0842,43.7355 60.5,46C 57.6715,46.9694 55.3382,46.3028 53.5,44C 54.056,43.6174 54.3893,43.1174 54.5,42.5 Z"/></g>
<g><path style="opacity:1" fill="#e96f4d" d="M 62.5,40.5 C 65.2776,40.0217 67.2776,41.0217 68.5,43.5C 65.1926,45.1702 63.1926,44.1702 62.5,40.5 Z"/></g>
<g><path style="opacity:1" fill="#e55d4b" d="M 71.5,39.5 C 72.3864,38.2241 73.3864,38.2241 74.5,39.5C 75.3256,40.451 75.4922,41.451 75,42.5C 73.9609,41.2899 72.7942,40.2899 71.5,39.5 Z"/></g>
<g><path style="opacity:1" fill="#f5960c" d="M 34.5,96.5 C 16.7842,84.0173 10.7842,67.3506 16.5,46.5C 17.1174,46.3893 17.6174,46.056 18,45.5C 23.9147,61.7401 29.748,78.0734 35.5,94.5C 35.1373,95.1835 34.8039,95.8501 34.5,96.5 Z"/></g>
<g><path style="opacity:1" fill="#ee7e39" d="M 46.5,44.5 C 48.0103,45.8361 49.6769,47.0027 51.5,48C 48.4535,49.7345 45.7868,49.0678 43.5,46C 44.7375,45.7679 45.7375,45.2679 46.5,44.5 Z"/></g>
<g><path style="opacity:1" fill="#e76239" d="M 68.5,46.5 C 70.1207,46.7869 71.1207,47.7869 71.5,49.5C 73.9688,50.1681 76.3021,50.8347 78.5,51.5C 68.6522,51.8271 58.9856,51.4938 49.5,50.5C 55.8333,49.1667 62.1667,47.8333 68.5,46.5 Z"/></g>
<g><path style="opacity:1" fill="#ef822a" d="M 37.5,48.5 C 39.0699,47.4407 40.4032,47.9407 41.5,50C 40.9747,50.6924 40.3081,51.1924 39.5,51.5C 38.8243,50.3984 38.1577,49.3984 37.5,48.5 Z"/></g>
<g><path style="opacity:1" fill="#ec752e" d="M 200.5,50.5 C 207.574,50.161 214.574,50.661 221.5,52C 230.147,57.9283 233.314,66.095 231,76.5C 229.463,86.0366 223.963,91.5366 214.5,93C 192.2,94.6937 183.367,84.527 188,62.5C 190.744,56.9206 194.911,52.9206 200.5,50.5 Z"/></g>
<g><path style="opacity:1" fill="#f19c69" d="M 258.5,52.5 C 250.167,51.1667 241.833,51.1667 233.5,52.5C 232.957,52.44 232.624,52.1067 232.5,51.5C 241.5,50.1667 250.5,50.1667 259.5,51.5C 259.376,52.1067 259.043,52.44 258.5,52.5 Z"/></g>
<g><path style="opacity:1" fill="#ee9272" d="M 301.5,51.5 C 294.313,51.1755 287.313,51.5088 280.5,52.5C 280.167,52.5 279.833,52.5 279.5,52.5C 275.833,51.1667 272.167,51.1667 268.5,52.5C 267.957,52.44 267.624,52.1067 267.5,51.5C 278.993,50.176 290.326,50.176 301.5,51.5 Z"/></g>
<g><path style="opacity:1" fill="#e66240" d="M 349.5,62.5 C 349.5,64.8333 349.5,67.1667 349.5,69.5C 341.316,69.1743 333.316,69.5076 325.5,70.5C 325.378,75.2318 325.878,79.8984 327,84.5C 327.685,87.0573 329.185,88.8906 331.5,90C 335.295,90.8372 338.961,90.5039 342.5,89C 345.273,86.6166 347.439,83.7833 349,80.5C 349.164,83.5225 348.164,86.1891 346,88.5C 334.553,95.6454 323.553,94.9788 313,86.5C 306.014,74.6617 307.18,63.8284 316.5,54C 325.323,49.7201 334.323,49.3868 343.5,53C 346.98,55.2975 348.98,58.4642 349.5,62.5 Z"/></g>
<g><path style="opacity:1" fill="#f6c3b6" d="M 49.5,50.5 C 58.9856,51.4938 68.6522,51.8271 78.5,51.5C 79.492,58.9818 79.8254,66.6484 79.5,74.5C 79.1667,74.5 78.8333,74.5 78.5,74.5C 78.5,67.1667 78.5,59.8333 78.5,52.5C 67.8281,52.6665 57.1615,52.4998 46.5,52C 47.2438,50.9614 48.2438,50.4614 49.5,50.5 Z"/></g>
<g><path style="opacity:1" fill="#fef9f6" d="M 206.5,51.5 C 210.757,50.5971 213.257,52.2637 214,56.5C 214.931,67.5728 214.597,78.5728 213,89.5C 208.641,92.758 205.641,91.758 204,86.5C 203.333,76.5 203.333,66.5 204,56.5C 204.847,54.8068 205.68,53.1401 206.5,51.5 Z"/></g>
<g><path style="opacity:1" fill="#ec752e" d="M 233.5,52.5 C 241.833,51.1667 250.167,51.1667 258.5,52.5C 257.167,52.5 255.833,52.5 254.5,52.5C 257.359,61.9097 260.526,71.2431 264,80.5C 267.373,71.3807 270.54,62.214 273.5,53C 271.866,52.5065 270.199,52.3398 268.5,52.5C 272.167,51.1667 275.833,51.1667 279.5,52.5C 277.549,52.2267 276.049,52.8934 275,54.5C 270.798,66.7713 266.798,79.1046 263,91.5C 259.545,92.7914 256.045,92.7914 252.5,91.5C 247.572,78.4798 242.239,65.6464 236.5,53C 235.552,52.5172 234.552,52.3505 233.5,52.5 Z"/></g>
<g><path style="opacity:1" fill="#e65f3d" d="M 280.5,52.5 C 287.313,51.5088 294.313,51.1755 301.5,51.5C 301.5,64.5 301.5,77.5 301.5,90.5C 303.288,90.2148 304.955,90.5481 306.5,91.5C 297.675,92.8214 289.009,92.8214 280.5,91.5C 282.167,91.5 283.833,91.5 285.5,91.5C 285.829,78.3226 285.495,65.3226 284.5,52.5C 283.167,52.5 281.833,52.5 280.5,52.5 Z"/></g>
<g><path style="opacity:1" fill="#f6c7bb" d="M 284.5,52.5 C 285.495,65.3226 285.829,78.3226 285.5,91.5C 283.833,91.5 282.167,91.5 280.5,91.5C 281.568,90.5655 282.901,90.2322 284.5,90.5C 284.5,77.8333 284.5,65.1667 284.5,52.5 Z"/></g>
<g><path style="opacity:1" fill="#fef5f3" d="M 328.5,51.5 C 331.238,50.9648 333.072,51.9648 334,54.5C 334.499,59.1548 334.666,63.8215 334.5,68.5C 331.5,68.5 328.5,68.5 325.5,68.5C 325.334,64.1539 325.501,59.8206 326,55.5C 326.662,54.0161 327.496,52.6828 328.5,51.5 Z"/></g>
<g><path style="opacity:1" fill="#ec7b44" d="M 54.5,54.5 C 55.6009,53.4017 56.9343,53.235 58.5,54C 59.2567,55.5122 60.2567,56.8455 61.5,58C 58.1604,58.8238 55.827,57.6571 54.5,54.5 Z"/></g>
<g><path style="opacity:1" fill="#e7674f" d="M 73.5,53.5 C 74.5,53.5 75.5,53.5 76.5,53.5C 76.3536,58.4211 75.3536,58.4211 73.5,53.5 Z"/></g>
<g><path style="opacity:1" fill="#ee8239" d="M 45.5,53.5 C 48.4905,53.3297 50.4905,54.663 51.5,57.5C 48.0316,58.6739 46.0316,57.3406 45.5,53.5 Z"/></g>
<g><path style="opacity:1" fill="#e96f47" d="M 64.5,53.5 C 67.2723,53.5952 69.2723,54.9285 70.5,57.5C 67.0316,58.6739 65.0316,57.3406 64.5,53.5 Z"/></g>
<g><path style="opacity:1" fill="#f4a15c" d="M 38.5,53.5 C 43.3605,56.0376 43.3605,57.7042 38.5,58.5C 38.5,56.8333 38.5,55.1667 38.5,53.5 Z"/></g>
<g><path style="opacity:1" fill="#ef7f2a" d="M 54.5,60.5 C 55.2341,61.7079 55.5674,63.0413 55.5,64.5C 54.3567,67.9758 54.1901,71.6425 55,75.5C 56.7409,74.2423 58.5742,73.2423 60.5,72.5C 60.6036,74.7028 61.2702,76.7028 62.5,78.5C 55.4921,78.6663 48.4921,78.4996 41.5,78C 40.2986,77.0975 39.4652,75.9308 39,74.5C 38.5008,69.8452 38.3342,65.1785 38.5,60.5C 43.8333,60.5 49.1667,60.5 54.5,60.5 Z"/></g>
<g><path style="opacity:1" fill="#e86735" d="M 54.5,60.5 C 61.8333,60.5 69.1667,60.5 76.5,60.5C 76.666,65.8437 76.4994,71.1771 76,76.5C 75.5,77 75,77.5 74.5,78C 70.5138,78.4988 66.5138,78.6655 62.5,78.5C 61.2702,76.7028 60.6036,74.7028 60.5,72.5C 61.6002,71.4415 62.9336,70.6082 64.5,70C 61.4721,68.1555 58.4721,66.3222 55.5,64.5C 55.5674,63.0413 55.2341,61.7079 54.5,60.5 Z"/></g>
<g><path style="opacity:1" fill="#fef6f2" d="M 55.5,64.5 C 58.4721,66.3222 61.4721,68.1555 64.5,70C 62.9336,70.6082 61.6002,71.4415 60.5,72.5C 58.5742,73.2423 56.7409,74.2423 55,75.5C 54.1901,71.6425 54.3567,67.9758 55.5,64.5 Z"/></g>
<g><path style="opacity:1" fill="#f4b9aa" d="M 349.5,62.5 C 350.473,64.9479 350.806,67.6146 350.5,70.5C 342.167,70.5 333.833,70.5 325.5,70.5C 333.316,69.5076 341.316,69.1743 349.5,69.5C 349.5,67.1667 349.5,64.8333 349.5,62.5 Z"/></g>
<g><path style="opacity:1" fill="#ee7c20" d="M 43.5,81.5 C 48.5,81.5 53.5,81.5 58.5,81.5C 58.3893,82.1174 58.056,82.6174 57.5,83C 59.9497,89.6849 62.6164,96.1849 65.5,102.5C 62.0381,103.482 58.3714,103.815 54.5,103.5C 52.4066,102.942 50.9066,101.609 50,99.5C 48.0888,93.3568 45.9222,87.3568 43.5,81.5 Z"/></g>
<g><path style="opacity:1" fill="#ea6f2d" d="M 58.5,81.5 C 61.8333,81.5 65.1667,81.5 68.5,81.5C 71.7003,87.4351 73.7003,93.7684 74.5,100.5C 71.6296,101.634 68.6296,102.3 65.5,102.5C 62.6164,96.1849 59.9497,89.6849 57.5,83C 58.056,82.6174 58.3893,82.1174 58.5,81.5 Z"/></g>
<g><path style="opacity:1" fill="#e86537" d="M 78.5,74.5 C 78.8333,74.5 79.1667,74.5 79.5,74.5C 82.2944,80.5515 84.2944,86.8848 85.5,93.5C 82.378,96.5684 78.7114,98.9017 74.5,100.5C 73.7003,93.7684 71.7003,87.4351 68.5,81.5C 74.0248,82.026 77.3581,79.6927 78.5,74.5 Z"/></g>
</svg>
